/* XPM */
static char * right_xpm[] = {
"64 64 8 1",
" 	c #FFFFFF",
".	c #CBDBFC",
"+	c #9BADB7",
"@	c #000000",
"#	c #A76F31",
"$	c #7E480C",
"%	c #D2D2D2",
"&	c #EEA3A9",
"         .      .           .            .      .           .   ",
"                                                                ",
"                                                                ",
".                       .                               .       ",
"                      . .          ++                 . .       ",
"                      . .         +..+                . .       ",
"                      .           .+..                .         ",
"   ...                .          ..  .                .         ",
"                                 ..                             ",
"    ....                         .                             .",
"                                                                ",
"                                                                ",
"                                      +                         ",
"                                     + +                        ",
"                                      +                         ",
".                                                               ",
"                                                               .",
"                                      +                         ",
"                            @@@@     + +                        ",
"                            @@#$@@    +                         ",
"                            @@#$@@                              ",
"                            @@$##$@                             ",
".                             @##$#@@@@@                ....    ",
"                          @@@@@$###@@@@@                        ",
"             +        .   @@@@@$###@@   @                 ...   ",
"            + +       . @@    %@@@@      @@                     ",
"     +..     +        .@       %%%%      @@                     ",
"    +..               .@               @@  @                    ",
"    +.+                @               @@  @                   .",
"     +...            @@               &@@  @                    ",
"       ...           @@               &&&  @                    ",
"                .    @@                     @@                  ",
"                 .   @@              @@  @@ @@ .                ",
"                .   @                 %@@&&@@@        ...       ",
"                    @                  @@&&@@@         ...+     ",
".                   @%                 %@&&&@@           +.+    ",
"                    @%                 %@&&&&&@          ..+    ",
"                    @%%%                %@@&&&@   +     ..+     ",
"                     @@@%%%%            %@@&&&@  + +            ",
"   ...                  @@@@%        @@@@@@@@@    +             ",
"                        @@@@@@@@@@@@@@@@@.                      ",
"    ....                @@@@         @@@@.                     .",
"                                       . .                      ",
"                                       .                        ",
"                                                                ",
"                             .                                  ",
"                            . .                                 ",
".                            .                                  ",
"                                                               .",
"                         +                                      ",
"                        + +                                     ",
"                         +                                      ",
"                                                                ",
"                                                                ",
".                             .                         ....    ",
"                             ..                                 ",
"         .                .  ..          .                ...   ",
"         .                ..+.           .                      ",
"     + . .                +..+         . .                +     ",
"    +  . .                 ++          . .                 +    ",
"       .                               .                       .",
"                                                                ",
"                                                                ",
"   .           .      .            .           .      .         "};
