/* XPM */
static char * up_xpm[] = {
"64 64 7 1",
" 	c #FFFFFF",
".	c #CBDBFC",
"+	c #9BADB7",
"@	c #000000",
"#	c #7E480C",
"$	c #A76F31",
"%	c #D2D2D2",
"         .      .           .            .      .           .   ",
"                                                                ",
"                                                                ",
".                       .                               .       ",
"                      . .          ++                 . .       ",
"                      . .         +..+                . .       ",
"                      .           .+..                .         ",
"   ...                .          ..  .                .         ",
"                                 ..                             ",
"    ....                         .                             .",
"                                                                ",
"                                                                ",
"                                      +                         ",
"                                     + +                        ",
"                                      +                         ",
".                                                               ",
"                                                               .",
"                                      +                         ",
"                                     + +                        ",
"                                      +                         ",
"                    @@@@@@@@        @@@@@@@@                    ",
"                    @@@@@@@@        @@@@@@@@                    ",
".                 @@#$$##$$$@  @@.@@$$$#$$##@           ....    ",
"                  @@#$$##$@@%@@%%@%%@$$#$$##$                   ",
"             +   @$$#$$##$@@ @@  @  @$$#$$##$@@           ...   ",
"            + +  @$$#$$##@%% %%  %  %@@#$$##$@@                 ",
"     +..     +   @@@@@@@@%           %%@@@@@@@@                 ",
"    +..          @@@@@@@@              @@@@@@@@                 ",
"    +.+             @%%%%              %%%@@                   .",
"     +...           @%                   %@@                    ",
"       ...        @@%                     %%@                   ",
"                .@%                         %@@                 ",
"                 @%                         %@@.                ",
"                . @@%                      %@         ...       ",
"                 @%                         %@@        ...+     ",
".                @%                         %@@          +.+    ",
"                 @%                         %@@          ..+    ",
"                 @%          %    %         %@@   +     ..+     ",
"                 @%           %  %          %@@  + +            ",
"   ...            @@%         %%%         %%@     +             ",
"                    @                     @@                    ",
"    ....            @%%%%              %%%@@                   .",
"                     @@@%%%%%%%%%%%%%%%@@@                      ",
"                     @@@@@@@@@@@@@@@@@@@@@                      ",
"                     @@@@             @@@@                      ",
"                     @@@@    .        @@@@                      ",
"                            . .                                 ",
".                            .                                  ",
"                                                               .",
"                         +                                      ",
"                        + +                                     ",
"                         +                                      ",
"                                                                ",
"                                                                ",
".                             .                         ....    ",
"                             ..                                 ",
"         .                .  ..          .                ...   ",
"         .                ..+.           .                      ",
"     + . .                +..+         . .                +     ",
"    +  . .                 ++          . .                 +    ",
"       .                               .                       .",
"                                                                ",
"                                                                ",
"   .           .      .            .           .      .         "};
