/* XPM */
static char *e854b1b5d33e40b5bc798ae5225ca7a3MBO5uq6LdABrWDW4[] = {
/* columns rows colors chars-per-pixel */
"64 64 113 2 ",
"   c #6C320E",
".  c #6F3716",
"X  c #6F3E2B",
"o  c #78431F",
"O  c #78481D",
"+  c #7C4A22",
"@  c #774828",
"#  c #7A4C2C",
"$  c #71463B",
"%  c #764C3E",
"&  c #784D3D",
"*  c #7C533E",
"=  c #7B5341",
"-  c #7E5A46",
";  c #804C26",
":  c #814E29",
">  c #84542B",
",  c #84582D",
"<  c #845935",
"1  c #8A5931",
"2  c #845D39",
"3  c #AA6E2C",
"4  c #B1773F",
"5  c #815C51",
"6  c #846255",
"7  c #8C6857",
"8  c #B47C42",
"9  c #B57E4B",
"0  c #B6824C",
"q  c #BF994E",
"w  c #BC8851",
"e  c #C68744",
"r  c #C78A47",
"t  c #CA8D4C",
"y  c #D3944F",
"u  c #C6965E",
"i  c #C8975F",
"p  c #D49651",
"a  c #DD9C56",
"s  c #DE9F5A",
"d  c #E09F57",
"f  c #C6AC57",
"g  c #C8AE57",
"h  c #C6A25B",
"j  c #C8AF5E",
"k  c #DFA158",
"l  c #C8B05F",
"z  c #D8B65B",
"x  c #D9BB5C",
"c  c #E2A259",
"v  c #C69864",
"b  c #C99A62",
"n  c #D8A262",
"m  c #E2A461",
"M  c #E9AF6B",
"N  c #EEB46F",
"B  c #F0B66F",
"V  c #E4AA72",
"C  c #E5B273",
"Z  c #E5BC70",
"A  c #EBB872",
"S  c #F1B771",
"D  c #F2B874",
"F  c #ECC467",
"G  c #EEC66A",
"H  c #EFC869",
"J  c #F1C76A",
"K  c #F1C96B",
"L  c #F1CA74",
"P  c #F7C27E",
"I  c #FAC57F",
"U  c #FCC97F",
"Y  c #F7D379",
"T  c #FCD67B",
"R  c #FED97D",
"E  c #FBE376",
"W  c #FEE67B",
"Q  c #9BADB7",
"!  c #A3A1B6",
"~  c #A7A5BA",
"^  c #C5BBB8",
"/  c #C8BFBC",
"(  c #FBC681",
")  c #FEC982",
"_  c #FFCC8B",
"`  c #E5D49E",
"'  c #FEE680",
"]  c #FFEA83",
"[  c #FEEA8E",
"{  c #C9C0BD",
"}  c #D9C5B8",
"|  c #EFE1A5",
" . c #F6E7A7",
".. c #F1D5C1",
"X. c #FEE6CC",
"o. c #FEF2C6",
"O. c #FFF4CA",
"+. c #F7E9DF",
"@. c #C5D3F3",
"#. c #C6D4F3",
"$. c #C8D7F7",
"%. c #CBDBFC",
"&. c #FEF7E0",
"*. c #FFF9E2",
"=. c #F7F5F2",
"-. c #F7F6F6",
";. c #FBF9F6",
":. c #FFFBF4",
">. c #FEFAF7",
",. c #FBFAFA",
"<. c #FBFBFB",
"1. c #FDFDFD",
"2. c white",
/* pixels */
"2.2.2.2.2.2.2.2.2.%.2.2.2.2.2.2.%.2.2.2.2.2.2.2.2.2.2.2.%.2.2.2.2.2.2.2.2.2.2.2.2.%.2.2.2.2.2.2.%.2.2.2.2.2.2.2.2.2.2.2.%.2.2.2.",
"2.2.2.2.2.2.2.2.2.2.2.2.2.2.2.2.2.2.2.2.2.2.2.2.2.2.2.2.2.2.2.2.2.2.2.2.2.2.2.2.2.2.2.2.2.2.2.2.2.2.2.2.2.2.2.2.2.2.2.2.2.2.2.2.",
"2.2.2.2.2.2.2.2.2.2.2.2.2.2.2.2.2.2.2.2.2.2.2.2.2.2.2.2.2.2.2.2.2.2.2.2.2.2.2.2.2.2.2.2.2.2.2.2.2.2.2.2.2.2.2.2.2.2.2.2.2.2.2.2.",
"%.2.2.2.2.2.2.2.2.2.2.2.2.2.2.2.2.2.2.2.2.2.2.2.%.2.2.2.2.2.2.2.2.2.2.2.2.2.2.2.2.2.2.2.2.2.2.2.2.2.2.2.2.2.2.2.%.2.2.2.2.2.2.2.",
"2.2.2.2.2.2.2.2.2.2.2.2.2.2.2.2.2.2.2.2.2.2.%.2.%.2.2.2.2.2.2.2.2.2.2.Q Q 2.2.2.2.2.2.2.2.2.2.2.2.2.2.2.2.2.%.2.%.2.2.2.2.2.2.2.",
"2.2.2.2.2.2.2.2.2.2.2.2.2.2.2.2.2.2.2.2.2.2.%.2.%.2.2.2.2.2.2.2.2.2.Q %.%.Q 2.2.2.2.2.2.2.2.2.2.2.2.2.2.2.2.%.2.%.2.2.2.2.2.2.2.",
"2.2.2.2.2.2.2.2.2.2.2.2.2.2.2.2.2.2.2.2.2.2.%.2.2.2.2.2.2.2.2.2.2.2.%.Q %.%.2.2.2.2.2.2.2.2.2.2.2.2.2.2.2.2.%.2.2.2.2.2.2.2.2.2.",
"2.2.2.%.%.%.2.2.2.2.2.2.2.2.2.2.2.2.2.2.2.2.%.2.2.2.2.2.2.2.2.2.2.%.%.2.2.%.2.2.2.2.2.2.2.2.2.2.2.2.2.2.2.2.%.2.2.2.2.2.2.2.2.2.",
"2.2.2.2.2.2.2.2.2.2.2.2.2.2.2.2.2.2.2.2.2.2.2.2.2.2.2.2.2.2.2.2.2.%.%.2.2.2.2.2.2.2.2.2.2.2.2.2.2.2.2.2.2.2.2.2.2.2.2.2.2.2.2.2.",
"2.2.2.2.%.%.%.%.2.2.2.2.2.2.2.2.2.2.2.2.2.2.2.2.2.2.2.2.2.2.2.2.2.%.2.2.2.2.2.2.2.2.2.2.2.2.2.2.2.2.2.2.2.2.2.2.2.2.2.2.2.2.2.%.",
"2.2.2.2.2.2.2.2.2.2.2.2.2.2.2.2.2.2.2.2.2.2.2.2.2.2.2.2.2.2.2.2.2.2.2.2.2.2.2.2.2.2.2.2.2.2.2.2.2.2.2.2.2.2.2.2.2.2.2.2.2.2.2.2.",
"2.2.2.2.2.2.2.2.2.2.2.2.2.2.2.2.2.2.2.2.2.2.2.2.2.2.2.2.2.2.2.2.2.2.2.2.2.2.2.2.2.2.2.2.2.2.2.2.2.2.2.2.2.2.2.2.2.2.2.2.2.2.2.2.",
"2.2.2.2.2.2.2.2.2.2.2.2.2.2.2.2.2.2.2.2.2.2.2.2.2.2.2.2.2.2.2.2.2.2.2.2.2.2.Q 2.2.2.2.2.2.2.2.2.2.2.2.2.2.2.2.2.2.2.2.2.2.2.2.2.",
"2.2.2.2.2.2.2.2.2.2.2.2.2.2.2.2.2.2.2.2.2.2.2.2.2.2.2.2.2.2.2.2.2.2.2.2.2.Q 2.Q 2.2.2.2.2.2.2.2.2.2.2.2.2.2.2.2.2.2.2.2.2.2.2.2.",
"2.2.2.2.2.2.2.2.2.2.2.2.2.2.2.2.2.2.2.2.2.2.2.2.2.2.2.2.2.2.2.2.2.2.2.2.2.2.Q 2.2.2.2.2.2.2.2.2.2.2.2.2.2.2.2.2.2.2.2.2.2.2.2.2.",
"%.2.2.2.2.2.2.2.2.2.2.2.2.2.2.2.2.2.2.2.2.2.2.2.2.2.2.2.2.2.2.2.2.2.2.2.2.2.2.2.2.2.2.2.2.2.2.2.2.2.2.2.2.2.2.2.2.2.2.2.2.2.2.2.",
"2.2.2.2.2.2.2.2.2.2.2.2.2.2.2.2.2.2.2.2.2.2.2.2.2.2.2.2.2.2.2.2.2.2.2.2.2.2.2.2.2.2.2.2.2.2.2.2.2.2.2.2.2.2.2.2.2.2.2.2.2.2.2.%.",
"2.2.2.2.2.2.2.2.2.2.2.2.2.2.2.2.2.2.2.2.2.2.2.2.2.2.2.2.2.2.2.2.2.2.2.2.2.2.Q 2.2.2.2.2.2.2.2.2.2.2.2.2.2.2.2.2.2.2.2.2.2.2.2.2.",
"2.2.2.2.2.2.2.2.2.2.2.2.2.2.2.2.2.2.2.2.2.2.2.2.2.2.2.2.2.2.2.2.2.2.2.2.2.Q 2.Q 2.2.2.2.2.2.2.2.2.2.2.2.2.2.2.2.2.2.2.2.2.2.2.2.",
"2.2.2.2.2.2.2.2.2.2.2.2.2.2.2.2.2.2.2.2.2.2.2.2.2.2.2.2.2.2.<.<.<.<.;.<.<.<.Q 2.2.2.2.2.2.2.2.2.2.2.2.2.2.2.2.2.2.2.2.2.2.2.2.2.",
"2.2.2.2.2.2.2.2.2.2.2.2.2.2.2.2.2.2.2.2.2.2.2.2.2.2.2.<.<.-.6 $ % = = = = & / <.<.1.2.2.2.2.2.2.2.2.2.2.2.2.2.2.2.2.2.2.2.2.2.2.",
"2.2.2.2.2.2.2.2.2.2.2.2.2.2.2.2.2.2.2.2.2.2.2.2.2.2.-.6 $ - | # u P ( I I N 9 & & / <.2.2.2.2.2.2.2.2.2.2.2.2.2.2.2.2.2.2.2.2.2.",
"%.2.2.2.2.2.2.2.2.2.2.2.2.2.2.2.2.2.2.2.2.2.2.2.<./ - | @ . < P ) ) ( _ ) B c a N v 5 -.2.2.2.2.2.2.2.2.2.2.2.2.%.%.%.%.2.2.2.2.",
"2.2.2.2.2.2.2.2.2.2.2.2.2.2.2.2.2.2.2.2.2.2.2.-.6 v q @ a N ( ) ) ) ) ) ) _ ( S c d M 7 -.2.2.2.2.2.2.2.2.2.2.2.2.2.2.2.2.2.2.2.",
"2.2.2.2.2.2.2.2.2.2.2.2.2.Q 2.2.2.2.2.2.2.2.#.7 ( I u 4 B ) ) ) b R R Z u C ) ) B c B ( 7 -.2.2.2.2.2.2.2.2.2.2.2.2.%.%.%.2.2.2.",
"2.2.2.2.2.2.2.2.2.2.2.2.Q 2.Q 2.2.2.2.2.2.-.6 P ) v 4 s ) R R i j o.O.` f h b ) ) ) c c P 7 -.2.2.2.2.2.2.2.2.2.2.2.2.2.2.2.2.2.",
"2.2.2.2.2.Q %.%.2.2.2.2.2.Q 2.2.2.2.2.2.-.7 I ) C w t p A E j { O.*.O.O.o.` f u C ) ) B c P 6 <.2.2.2.2.2.2.2.2.2.2.2.2.2.2.2.2.",
"2.2.2.2.Q %.%.2.2.2.2.2.2.2.2.2.2.2.2.<.6 Y ) ) u 4 c y Z E * =.[ ] ] ] [ &.K g h C ) S c ( = <.2.2.2.2.2.2.2.2.2.2.2.2.2.2.2.2.",
"2.2.2.2.Q %.Q 2.2.2.2.2.2.2.2.2.2.2.2.<.* E ) ) b 4 a c ( E + * / ;.-.o.O.+.m H q u ) B N ( * <.2.2.2.2.2.2.2.2.2.2.2.2.2.2.2.%.",
"2.2.2.2.2.Q %.%.%.2.2.2.2.2.2.2.2.2.2.<.= E W ) ( u + a c c F E j * = 2 ( S c c G f v B S P = <.2.2.2.2.2.2.2.2.2.2.2.2.2.2.2.2.",
"2.2.2.2.2.2.2.%.%.%.2.2.2.2.2.2.2.2.2./ l E W ) S S P : 8 a c c G E E E c c c c J f b ) ( ( = <.2.2.2.2.2.2.2.2.2.2.2.2.2.2.2.2.",
"2.2.2.2.2.2.2.2.2.2.2.2.2.2.2.2.%.2.^ 0 E W U c c ) _ ( u + a a k k k k c c G E f 8 c S ( ( = <.2.2.2.2.2.2.2.2.2.2.2.2.2.2.2.2.",
"2.2.2.2.2.2.2.2.2.2.2.2.2.2.2.2.2.$.= d E x t d S _ X.} n P : o O o o > E E f O 8 S ) P 1 ( 9 ! 2.2.2.2.2.2.2.2.2.2.2.2.2.2.2.2.",
"2.2.2.2.2.2.2.2.2.2.2.2.2.2.2.2.%.,.% a K E ) _ X.:...L R ) ( U I P ( ( I , 0 a B ( P > s ( d   2.2.2.2.2.2.%.%.%.2.2.2.2.2.2.2.",
"2.2.2.2.2.2.2.2.2.2.2.2.2.2.2.2.2.<.5 a c K ' >.;.V c c E ) ) ) ) ) ) ) ) I I U ( b ; a I I d   2.2.2.2.2.2.2.%.%.%.Q 2.2.2.2.2.",
"%.2.2.2.2.2.2.2.2.2.2.2.2.2.2.2.2.2.;.6 a c m W L c c c K z z E K c c B ) ) ) P < 8 N n r c 9 ^ 2.2.2.2.2.2.2.2.2.Q %.Q 2.2.2.2.",
"2.2.2.2.2.2.2.2.2.2.2.2.2.2.2.2.2.2.2.-.5 a a a c d c d c d c c c d d y p S b <  .c ( ) d a 5 <.2.2.2.2.2.2.2.2.2.%.%.Q 2.2.2.2.",
"2.2.2.2.2.2.2.2.2.2.2.2.2.2.2.2.2.2.2.2.-.5 < a s d c d d d e d c d c y y B T E E E c c a 6 -.2.2.2.Q 2.2.2.2.2.%.%.Q 2.2.2.2.2.",
"2.2.2.2.2.2.2.2.2.2.2.2.2.2.2.2.2.2.2.2.2.1.-.5 = a a a d d e d d c d d d c c c c c a 9 5 -.2.2.2.Q 2.Q 2.2.2.2.2.2.2.2.2.2.2.2.",
"2.2.2.%.%.%.2.2.2.2.2.2.2.2.2.2.2.2.2.2.1.1.1.<.;.5 X < a a d d d d d 3 a c c c a a 5 ^ <.2.2.2.2.2.Q 2.2.2.2.2.2.2.2.2.2.2.2.2.",
"2.2.2.2.2.2.2.2.2.2.2.2.2.2.2.2.2.2.2.2.2.2.2.2.2.<.<.-.5 & & & a a a a a a a & & ~ ;.2.2.2.2.2.2.2.2.2.2.2.2.2.2.2.2.2.2.2.2.2.",
"2.2.2.2.%.%.%.%.2.2.2.2.2.2.2.2.2.2.2.2.2.2.2.2.2.2.2.2.<.<.<.-.5 & & & & & 5 @.<.$.2.2.2.2.2.2.2.2.2.2.2.2.2.2.2.2.2.2.2.2.2.%.",
"2.2.2.2.2.2.2.2.2.2.2.2.2.2.2.2.2.2.2.2.2.2.2.2.2.2.2.2.2.2.2.2.<.<.<.<.;.<.<.%.2.%.2.2.2.2.2.2.2.2.2.2.2.2.2.2.2.2.2.2.2.2.2.2.",
"2.2.2.2.2.2.2.2.2.2.2.2.2.2.2.2.2.2.2.2.2.2.2.2.2.2.2.2.2.2.2.2.2.2.2.2.2.2.2.%.2.2.2.2.2.2.2.2.2.2.2.2.2.2.2.2.2.2.2.2.2.2.2.2.",
"2.2.2.2.2.2.2.2.2.2.2.2.2.2.2.2.2.2.2.2.2.2.2.2.2.2.2.2.2.2.2.2.2.2.2.2.2.2.2.2.2.2.2.2.2.2.2.2.2.2.2.2.2.2.2.2.2.2.2.2.2.2.2.2.",
"2.2.2.2.2.2.2.2.2.2.2.2.2.2.2.2.2.2.2.2.2.2.2.2.2.2.2.2.2.%.2.2.2.2.2.2.2.2.2.2.2.2.2.2.2.2.2.2.2.2.2.2.2.2.2.2.2.2.2.2.2.2.2.2.",
"2.2.2.2.2.2.2.2.2.2.2.2.2.2.2.2.2.2.2.2.2.2.2.2.2.2.2.2.%.2.%.2.2.2.2.2.2.2.2.2.2.2.2.2.2.2.2.2.2.2.2.2.2.2.2.2.2.2.2.2.2.2.2.2.",
"%.2.2.2.2.2.2.2.2.2.2.2.2.2.2.2.2.2.2.2.2.2.2.2.2.2.2.2.2.%.2.2.2.2.2.2.2.2.2.2.2.2.2.2.2.2.2.2.2.2.2.2.2.2.2.2.2.2.2.2.2.2.2.2.",
"2.2.2.2.2.2.2.2.2.2.2.2.2.2.2.2.2.2.2.2.2.2.2.2.2.2.2.2.2.2.2.2.2.2.2.2.2.2.2.2.2.2.2.2.2.2.2.2.2.2.2.2.2.2.2.2.2.2.2.2.2.2.2.%.",
"2.2.2.2.2.2.2.2.2.2.2.2.2.2.2.2.2.2.2.2.2.2.2.2.2.Q 2.2.2.2.2.2.2.2.2.2.2.2.2.2.2.2.2.2.2.2.2.2.2.2.2.2.2.2.2.2.2.2.2.2.2.2.2.2.",
"2.2.2.2.2.2.2.2.2.2.2.2.2.2.2.2.2.2.2.2.2.2.2.2.Q 2.Q 2.2.2.2.2.2.2.2.2.2.2.2.2.2.2.2.2.2.2.2.2.2.2.2.2.2.2.2.2.2.2.2.2.2.2.2.2.",
"2.2.2.2.2.2.2.2.2.2.2.2.2.2.2.2.2.2.2.2.2.2.2.2.2.Q 2.2.2.2.2.2.2.2.2.2.2.2.2.2.2.2.2.2.2.2.2.2.2.2.2.2.2.2.2.2.2.2.2.2.2.2.2.2.",
"2.2.2.2.2.2.2.2.2.2.2.2.2.2.2.2.2.2.2.2.2.2.2.2.2.2.2.2.2.2.2.2.2.2.2.2.2.2.2.2.2.2.2.2.2.2.2.2.2.2.2.2.2.2.2.2.2.2.2.2.2.2.2.2.",
"2.2.2.2.2.2.2.2.2.2.2.2.2.2.2.2.2.2.2.2.2.2.2.2.2.2.2.2.2.2.2.2.2.2.2.2.2.2.2.2.2.2.2.2.2.2.2.2.2.2.2.2.2.2.2.2.2.2.2.2.2.2.2.2.",
"%.2.2.2.2.2.2.2.2.2.2.2.2.2.2.2.2.2.2.2.2.2.2.2.2.2.2.2.2.2.%.2.2.2.2.2.2.2.2.2.2.2.2.2.2.2.2.2.2.2.2.2.2.2.2.2.%.%.%.%.2.2.2.2.",
"2.2.2.2.2.2.2.2.2.2.2.2.2.2.2.2.2.2.2.2.2.2.2.2.2.2.2.2.2.%.%.2.2.2.2.2.2.2.2.2.2.2.2.2.2.2.2.2.2.2.2.2.2.2.2.2.2.2.2.2.2.2.2.2.",
"2.2.2.2.2.2.2.2.2.%.2.2.2.2.2.2.2.2.2.2.2.2.2.2.2.2.%.2.2.%.%.2.2.2.2.2.2.2.2.2.2.%.2.2.2.2.2.2.2.2.2.2.2.2.2.2.2.2.%.%.%.2.2.2.",
"2.2.2.2.2.2.2.2.2.%.2.2.2.2.2.2.2.2.2.2.2.2.2.2.2.2.%.%.Q %.2.2.2.2.2.2.2.2.2.2.2.%.2.2.2.2.2.2.2.2.2.2.2.2.2.2.2.2.2.2.2.2.2.2.",
"2.2.2.2.2.Q 2.%.2.%.2.2.2.2.2.2.2.2.2.2.2.2.2.2.2.2.Q %.%.Q 2.2.2.2.2.2.2.2.2.%.2.%.2.2.2.2.2.2.2.2.2.2.2.2.2.2.2.2.Q 2.2.2.2.2.",
"2.2.2.2.Q 2.2.%.2.%.2.2.2.2.2.2.2.2.2.2.2.2.2.2.2.2.2.Q Q 2.2.2.2.2.2.2.2.2.2.%.2.%.2.2.2.2.2.2.2.2.2.2.2.2.2.2.2.2.2.Q 2.2.2.2.",
"2.2.2.2.2.2.2.%.2.2.2.2.2.2.2.2.2.2.2.2.2.2.2.2.2.2.2.2.2.2.2.2.2.2.2.2.2.2.2.%.2.2.2.2.2.2.2.2.2.2.2.2.2.2.2.2.2.2.2.2.2.2.2.%.",
"2.2.2.2.2.2.2.2.2.2.2.2.2.2.2.2.2.2.2.2.2.2.2.2.2.2.2.2.2.2.2.2.2.2.2.2.2.2.2.2.2.2.2.2.2.2.2.2.2.2.2.2.2.2.2.2.2.2.2.2.2.2.2.2.",
"2.2.2.2.2.2.2.2.2.2.2.2.2.2.2.2.2.2.2.2.2.2.2.2.2.2.2.2.2.2.2.2.2.2.2.2.2.2.2.2.2.2.2.2.2.2.2.2.2.2.2.2.2.2.2.2.2.2.2.2.2.2.2.2.",
"2.2.2.%.2.2.2.2.2.2.2.2.2.2.2.%.2.2.2.2.2.2.%.2.2.2.2.2.2.2.2.2.2.2.2.%.2.2.2.2.2.2.2.2.2.2.2.%.2.2.2.2.2.2.%.2.2.2.2.2.2.2.2.2."
};
