/* XPM */
static char * rock_xpm[] = {
"64 64 7 1",
" 	c #FFFFFF",
".	c #CBDBFC",
"+	c #9BADB7",
"@	c #E5FFFA",
"#	c #847E87",
"$	c #696A6A",
"%	c #DDDDDD",
"         .      .           .            .      .           .   ",
"                                                                ",
"                                                                ",
".                       .                               .       ",
"                      . .          ++                 . .       ",
"                      . .         +..+                . .       ",
"                      .           .+..                .         ",
"   ...                .          ..  .                .         ",
"                                 ..                             ",
"    ....                         .                             .",
"                                                                ",
"                              @@@@ @@@@                         ",
"                              @@@@ @@@@                         ",
"                            @@@@@@@@@@@@@@                      ",
"                            @@@@@@@@@@@@@@                      ",
".                         @@@@@@@@@@@@@@@@                      ",
"                         @@@@@@@@@@@@@@@@@@@@                  .",
"                         @@@@@@@@@@@@@@@@@@@@                   ",
"                      @@@@@@......@@@@@@@@...                   ",
"                      @@@@@@......@@@@@@@@...                   ",
"                      @@@@@@......@@@@@@@@...                   ",
"                     @......######........####                  ",
".                    @####################$$$####       ....    ",
"                     @####################$$$####               ",
"             +       @####################$$$####         ...   ",
"            + +      +####################$$$$#####             ",
"     +..     +    @@@@#################$$$@@@$$$$##             ",
"    +..           @@@@#################$$$@@@$$$$##             ",
"    +.+        @@@@@@@@@@.#############$$$...%$$$$$            .",
"     +...      @@@@@@@@@@.#############$$$...%$$$$$             ",
"       ...   @@@@@@@@@@@@.####$$#######$$$....@@@@@             ",
"             @@@@@@@@@@@@.####$$#######$$$....@@@@@             ",
"             @@@@@....@@@@@@..$$#######$$$####$$$$$             ",
"             @@@@@....@@@@@@..$$#######$$$####$$$$$   ...       ",
"           @@@@...####@@@@..@@..######$$$$####$$$@@    ...+     ",
".          ..#####$$$%....$$..@@$$.###$$$$@@@#...@@      +.+    ",
"           ..#####$$$%....$$..@@$$.###$$$$@@@#...@@      ..+    ",
"           ..#####$$$%....$$..@@$$.###$$$$@@@#...@@     ..+     ",
"           #######$$$#####$$##..@@$###$$$$...@###..+            ",
"   ...     #######$$$#####$$####$$$#######$$$$$$$$$$            ",
"           #######$$$#####$$####$$$#######$$$$$$$$$$            ",
"    ....   #######$$$#####$$####$$$#######$$$$$$$$$$           .",
"           $$###$$@@@$############$@@@@#######$$$$$$            ",
"           $$###$$@@@$############$@@@@#######$$$$$$            ",
"           $$###$$@@@$############$@@@@#######$$$$$$            ",
"           $$$$$@@@@@$$$$#########@@@@....###$$$$$$             ",
"             $$$##....$$$$########....#######$$$$               ",
".            $$$##....$$$$########....#######$$$$               ",
"             $$$##....$$$$########....#######$$$$              .",
"                  ###$$$$$######..####$$$$$$$$                  ",
"                  ###$$$$$######..####$$$$$$$$                  ",
"                         +$$$$$$$$$$$$$                         ",
"                                                                ",
"                                                                ",
".                             .                         ....    ",
"                             ..                                 ",
"         .                .  ..          .                ...   ",
"         .                ..+.           .                      ",
"     + . .                +..+         . .                +     ",
"    +  . .                 ++          . .                 +    ",
"       .                               .                       .",
"                                                                ",
"                                                                ",
"   .           .      .            .           .      .         "};
