/* XPM */
static char * rocks_xpm[] = {
"64 64 6 1",
" 	c #FFFFFF",
".	c #CBDBFC",
"+	c #9BADB7",
"@	c #DDDDDD",
"#	c #847E87",
"$	c #696A6A",
"         .      .           .            .      .           .   ",
"                                                                ",
"                                                                ",
".                       .                               .       ",
"                      . .          ++                 . .       ",
"                      . .         +..+                . .       ",
"                      .           .+..                .         ",
"   ...                .          ..  .                .         ",
"                                 ..                             ",
"    ....                         .                             .",
"                                                                ",
"                                                                ",
"                                      +                         ",
"                                     + +                        ",
"                               @@ @@@@+                         ",
".                              @@ @@@@                          ",
"                             @@@@@@@@@@                        .",
"                             @@@@@@@@@@                         ",
"                            @@@@@@@@@@@@@@                      ",
"                          @@@@@@@@@@@@@@@@@                     ",
"                          @@@@@@@@@@@@@@@@@                     ",
"                        @@@@@....@@@@@@....                     ",
".                     @@.....####......$$$##            ....    ",
"                      @@.....####......$$$##                    ",
"             +        @@###############$$$$###            ...   ",
"            + +       @@###############$$$$###                  ",
"     +..     +        ++###############$$$$$####                ",
"    +..               ++###############$$$$$####                ",
"    +.+              @@@##############$$$$@$$$##               .",
"     +...         @@@@@@@@..##########$$$$.@$$$$                ",
"       ...        @@@@@@@@..##########$$$$.@$$$$                ",
"                @@@@@@@@@@..###$######$$$$..@@@@                ",
"                @@@@@...@@@@@..$######$$$$##$$$$                ",
"              @@@@...###@@@@.@@.####$$$$$$##$$@@      ...       ",
"              ..#####$@@....$..@$.##$$$$$$@#..@@       ...+     ",
".             ..#####$@@....$..@$.##$$$$$$@#..@@         +.+    ",
"              #######$######$##.@$##$$$@@@.@##..         ..+    ",
"              #######$######$##.@$##$$$@@@.@##..  +     ..+     ",
"              #######$######$###$$########$$$$$$$+ +            ",
"   ...        #######$##########$#@@#######$$$$$$ +             ",
"              #######$##########$#@@#######$$$$$$               ",
"    ....      #######$##########$#@@#######$$$$$$              .",
"              $$###$$@$$#########$@@@@######$$$$$               ",
"              $$$$$@@@$$$$#######@@@...####$$$$$                ",
"                $$$##...$$$$#####...###$$$#$$$                  ",
"                $$$##...$$$$#####...###$$$#$$$                  ",
"                     #$$$$$$####.###$$$$$$$$                    ",
".                    #$$$$$$####.###$$$$$$$$                    ",
"                            $$$$$$$$$$                         .",
"                         +                                      ",
"                        + +                                     ",
"                         +                                      ",
"                                                                ",
"                                                                ",
".                             .                         ....    ",
"                             ..                                 ",
"         .                .  ..          .                ...   ",
"         .                ..+.           .                      ",
"     + . .                +..+         . .                +     ",
"    +  . .                 ++          . .                 +    ",
"       .                               .                       .",
"                                                                ",
"                                                                ",
"   .           .      .            .           .      .         "};
