/* XPM */
static char * braum_xpm[] = {
"64 64 35 1",
" 	c #FFFFFF",
".	c #CBDBFC",
"+	c #000000",
"@	c #EAD7BB",
"#	c #9BADB7",
"$	c #C69C84",
"%	c #3D3432",
"&	c #AA795B",
"*	c #F7F7F7",
"=	c #B78D75",
"-	c #E5E5E5",
";	c #C3C3C3",
">	c #8994BE",
",	c #5968A4",
"'	c #E0E292",
")	c #303858",
"!	c #B5B830",
"~	c #797B20",
"{	c #6C79AE",
"]	c #242424",
"^	c #60453C",
"/	c #3B3B3B",
"(	c #3E2D26",
"_	c #251C16",
":	c #2B2724",
"<	c #36322E",
"[	c #46403C",
"}	c #744730",
"|	c #7F7F7F",
"1	c #99D9EA",
"2	c #6E6E6E",
"3	c #181514",
"4	c #FFAEC9",
"5	c #FF80A9",
"6	c #2C2523",
"         .      .           .            .      .           .   ",
"                                                                ",
"                                                                ",
".                   +++++                               .       ",
"                   +@@@@@+         ##                 . .       ",
"                  +@@@@@$$+       #..#                . .       ",
"                  +@@@@@$$+       .#..                .         ",
"   ...            +@%%%%@%+      ..  .                .         ",
"          +  +   +@+&& +@&+      ..                             ",
"    ...+++*++    +@@@@@@@=+      .                             .",
"      +**-;*-+    +@@@%%%%+                                     ",
"       ++;-;**++  ++@@@$&&+                                     ",
"       +++;;-***+ +&++$$$$+           #                         ",
"       +++;;-***+ +&++$$$$+          # #                        ",
"      +>>,+;;;;;*++$&&++++            #                         ",
".     +>>,>+++;;-++@$$&+++                                      ",
"     +'++>)+>,++-+&+@@@$+++++++++++++++++++++++++++++          .",
"    +'!''++,>,))+&=@++@@@@+@@@+++~~~~''''''!'!!!!!!!+           ",
"    ++!!!~~+,)++++==$$++++=$$$@@+~~~~!!!!!!!!!!!!!!+            ",
"   +''+~~~~~++'''!+@@@@+{+=@@@@$@+~~~~!!!!!!!!!!!!!+            ",
"   +''+~~~~~++'''!+@@@@+{+=@@@@$@+~~~~!!!!!!!!!!!!!+            ",
"   +'!!+++++++''!~+@@@@@+@=@@@@+$+~~~~~~~~!!!!!!!!+             ",
".   +!~~~~~+&+''!~+$@@@@@@=$$@@@++++++++++++++++++      ....    ",
"     ++~~~+&&&++++++@@@@@@@$$@@@+++++]+]]]]]]]]+++              ",
"    +$&++++$@$$$+^^+$$@@@$$&&@@@+++++]]////]/////+        ...   ",
"    +@$&&+^+@@@@&+((++$$$$$&&$@$++++]]/]///]/////+              ",
"   +@@@@@$+(+@@@$$++++&=$$&&&$$$++++]]/////]/////++             ",
"   +@@@@@$+(+@@@$$++++&=$$&&&$$$++++]]/////]/////++             ",
"   +++$@@@$+++$$$$+'!!+&&++++&&&++++]]]//////////++            .",
"  +^^^+$$$=&&+$$$=&++++&+''''+&&++++++]/////]////+++            ",
"  +^++^++++&++====&+___+!~'~~~+&++++]]///////////+++            ",
"  ++$$+((__+++++=&&++++'~++++~'+++]]+]]////////]]+++            ",
"  +$==&+++++  +++&&+++!'+,,,,+'~+++++++++++////]]+++            ",
"  +=++&&&&+     +++!!!~+,>)>>)+~+++++::<[[+//]///+++  ...       ",
"  +=++&&&&+     +++!!!~+,>)>>)+~+++++::<[[+//]///+++   ...#     ",
". ++^^++++       +!~++++>)>))>+++_+++++<[[+]///]]+++     #.#    ",
"  +^^^(+++       +++___+,,>)))++__++&++<[[+]//]//++      ..#    ",
"  +^^((__++      +~~+++++))))+~+_+&&+(+<[[+]/////++     ..#     ",
"   +((_++=+      +~~~~~!!++++!~+_+&&+(+<[[+]//]//+ #            ",
"   .+++==&+      ++~!!!~~''''~++++++_(+<[[+]//]//+#             ",
"     +++++       +~+++++++++++++:+++++:<[[+]]////+              ",
"    .+++++       +~+++++++++++++:+++++:<[[+]]////+             .",
"                +'~+_____++___+++++++++++++/]////+              ",
"              ++'+~+((((((((((++++]]]]]]]]]/]////++      +      ",
"              ++'~+(^^^^((^^^(+++]]]]//]////]////+}+    +}+     ",
"             +''+!+(^^^(+(^^^^++]+]]]//]////]/////+}+++++++     ",
"             +!!~+(^^^(+(^^^^(++]]]]]///////]/////++;;*****+    ",
".            +!!~+(^^^(+(^^^^(++]]]]]///////]/////++;;*****+    ",
"             +!!~+(^((+_(^^((++++]]]///]////]/////+;|****** ++ .",
"             ++++((_+++_(^(++++++]]]//]/////]/////+|;;11**1;++  ",
"            +^^^(+_++++_((+))++++]]]]]]]]]]]]]]]]++|;|++;;+|++  ",
"           +^^^^+)+ +++____++++++++++++++++++++++++|-*******++  ",
"           +((((_+  +++++++~~~~~''''''!'!!!!!!!!!!+|;;--22;;++  ",
"          ++++___+ +~~+%%3+~~~~!!!!!!!!!!!!!!!!!!!!+|;22452;++  ",
".         ++++___+ +~~+%%3+~~~~!!!!!!!!!!!!!!!!!!!!+|;22452;++  ",
"          +%%6+++  +~~+%66+~~~~~!!!!!!!!!!!!!!!!!!!+|+++55++    ",
"         +%%63++  +~~~+%%6+~~~~~~~!!!!!!!!!!!!!!!!!!+|++++++.   ",
"         +%%63++  +++++%%63+++++++++++++++++++++++++++++        ",
"     # . +%%63++       +63333+         . .                #     ",
"    #  . +%%63++        ++++++         . .                 #    ",
"       . +%66333+                      .                       .",
"         +%66333+                                               ",
"          +++++++                                               ",
"   .           .      .            .           .      .         "};
